<mxfile host="65bd71144e">
    <diagram id="h41tIg1SNWZWPz2I5nP0" name="Page-1">
        <mxGraphModel dx="1190" dy="264" grid="1" gridSize="10" guides="1" tooltips="1" connect="1" arrows="1" fold="1" page="1" pageScale="1" pageWidth="850" pageHeight="1100" math="0" shadow="0">
            <root>
                <mxCell id="0"/>
                <mxCell id="1" parent="0"/>
                <mxCell id="4" value="" style="edgeStyle=none;html=1;" edge="1" parent="1" source="2" target="3">
                    <mxGeometry relative="1" as="geometry"/>
                </mxCell>
                <mxCell id="2" value="inicio" style="ellipse;whiteSpace=wrap;html=1;" vertex="1" parent="1">
                    <mxGeometry x="260" y="70" width="120" height="80" as="geometry"/>
                </mxCell>
                <mxCell id="6" value="" style="edgeStyle=none;html=1;" edge="1" parent="1" source="3" target="5">
                    <mxGeometry relative="1" as="geometry"/>
                </mxCell>
                <mxCell id="3" value="agua = m^3" style="shape=parallelogram;perimeter=parallelogramPerimeter;whiteSpace=wrap;html=1;fixedSize=1;" vertex="1" parent="1">
                    <mxGeometry x="260" y="190" width="120" height="60" as="geometry"/>
                </mxCell>
                <mxCell id="8" value="" style="edgeStyle=none;html=1;" edge="1" parent="1" source="5" target="7">
                    <mxGeometry relative="1" as="geometry">
                        <Array as="points">
                            <mxPoint x="490" y="320"/>
                        </Array>
                    </mxGeometry>
                </mxCell>
                <mxCell id="25" style="edgeStyle=none;html=1;exitX=0;exitY=0.5;exitDx=0;exitDy=0;entryX=0.5;entryY=0;entryDx=0;entryDy=0;" edge="1" parent="1" source="5" target="9">
                    <mxGeometry relative="1" as="geometry">
                        <Array as="points">
                            <mxPoint x="180" y="320"/>
                        </Array>
                    </mxGeometry>
                </mxCell>
                <mxCell id="5" value="&lt;div style=&quot;color: rgb(255, 255, 255); background-color: rgb(13, 13, 29); font-family: &amp;quot;Droid Sans Mono&amp;quot;, &amp;quot;monospace&amp;quot;, monospace; font-size: 14px; line-height: 19px;&quot;&gt;&lt;span style=&quot;color: #f78c6c;&quot;&gt;agua&amp;lt;&lt;/span&gt;&lt;span style=&quot;color: #fc626a;&quot;&gt;50&lt;/span&gt;&lt;/div&gt;" style="rhombus;whiteSpace=wrap;html=1;" vertex="1" parent="1">
                    <mxGeometry x="280" y="280" width="80" height="80" as="geometry"/>
                </mxCell>
                <mxCell id="32" style="edgeStyle=none;html=1;entryX=0.5;entryY=0;entryDx=0;entryDy=0;" edge="1" parent="1" source="7" target="28">
                    <mxGeometry relative="1" as="geometry">
                        <Array as="points">
                            <mxPoint x="490" y="690"/>
                            <mxPoint x="220" y="690"/>
                        </Array>
                    </mxGeometry>
                </mxCell>
                <mxCell id="7" value="&lt;div style=&quot;color: rgb(255, 255, 255); background-color: rgb(13, 13, 29); font-family: &amp;quot;Droid Sans Mono&amp;quot;, &amp;quot;monospace&amp;quot;, monospace; font-size: 14px; line-height: 19px;&quot;&gt;&lt;span style=&quot;color: #f78c6c;&quot;&gt;costot = &lt;/span&gt;&lt;span style=&quot;color: #89ddff;&quot;&gt;&quot;&lt;/span&gt;&lt;span style=&quot;color: #c3e88d;&quot;&gt;Debe pagar 1000&lt;/span&gt;&lt;span style=&quot;color: #89ddff;&quot;&gt;&quot;&lt;/span&gt;&lt;/div&gt;" style="whiteSpace=wrap;html=1;" vertex="1" parent="1">
                    <mxGeometry x="420" y="350" width="140" height="70" as="geometry"/>
                </mxCell>
                <mxCell id="18" value="" style="edgeStyle=none;html=1;" edge="1" parent="1" source="9" target="17">
                    <mxGeometry relative="1" as="geometry">
                        <Array as="points">
                            <mxPoint x="345" y="400"/>
                        </Array>
                    </mxGeometry>
                </mxCell>
                <mxCell id="20" value="" style="edgeStyle=none;html=1;" edge="1" parent="1" source="9" target="19">
                    <mxGeometry relative="1" as="geometry">
                        <Array as="points">
                            <mxPoint x="5" y="400"/>
                        </Array>
                    </mxGeometry>
                </mxCell>
                <mxCell id="9" value="&lt;div style=&quot;color: rgb(255, 255, 255); background-color: rgb(13, 13, 29); font-family: &amp;quot;Droid Sans Mono&amp;quot;, &amp;quot;monospace&amp;quot;, monospace; font-size: 14px; line-height: 19px;&quot;&gt;&lt;div style=&quot;line-height: 19px;&quot;&gt;&lt;span style=&quot;color: #f78c6c;&quot;&gt;agua&amp;lt;&lt;/span&gt;&lt;span style=&quot;color: #fc626a;&quot;&gt;200&lt;/span&gt;&lt;/div&gt;&lt;/div&gt;" style="rhombus;whiteSpace=wrap;html=1;" vertex="1" parent="1">
                    <mxGeometry x="130" y="350" width="100" height="100" as="geometry"/>
                </mxCell>
                <mxCell id="31" style="edgeStyle=none;html=1;entryX=0.5;entryY=0;entryDx=0;entryDy=0;" edge="1" parent="1" source="17" target="28">
                    <mxGeometry relative="1" as="geometry">
                        <Array as="points">
                            <mxPoint x="345" y="690"/>
                            <mxPoint x="220" y="690"/>
                        </Array>
                    </mxGeometry>
                </mxCell>
                <mxCell id="17" value="&lt;div style=&quot;color: rgb(255, 255, 255); background-color: rgb(13, 13, 29); font-family: &amp;quot;Droid Sans Mono&amp;quot;, &amp;quot;monospace&amp;quot;, monospace; font-weight: normal; font-size: 14px; line-height: 19px;&quot;&gt;&lt;div&gt;&lt;span style=&quot;color: #f78c6c;&quot;&gt;costot = &lt;/span&gt;&lt;span style=&quot;color: #89ddff;&quot;&gt;(&lt;/span&gt;&lt;span style=&quot;color: #f78c6c;&quot;&gt;agua-&lt;/span&gt;&lt;span style=&quot;color: #fc626a;&quot;&gt;50&lt;/span&gt;&lt;span style=&quot;color: #89ddff;&quot;&gt;)&lt;/span&gt;&lt;span style=&quot;color: #f78c6c;&quot;&gt;*&lt;/span&gt;&lt;span style=&quot;color: #fc626a;&quot;&gt;2000&lt;/span&gt;&lt;span style=&quot;color: #f78c6c;&quot;&gt;+&lt;/span&gt;&lt;span style=&quot;color: #fc626a;&quot;&gt;1000&lt;/span&gt;&lt;/div&gt;&lt;/div&gt;" style="whiteSpace=wrap;html=1;" vertex="1" parent="1">
                    <mxGeometry x="260" y="440" width="170" height="80" as="geometry"/>
                </mxCell>
                <mxCell id="22" value="" style="edgeStyle=none;html=1;" edge="1" parent="1" source="19" target="21">
                    <mxGeometry relative="1" as="geometry">
                        <Array as="points">
                            <mxPoint x="170" y="520"/>
                        </Array>
                    </mxGeometry>
                </mxCell>
                <mxCell id="24" value="" style="edgeStyle=none;html=1;" edge="1" parent="1" source="19" target="23">
                    <mxGeometry relative="1" as="geometry">
                        <Array as="points">
                            <mxPoint x="-130" y="520"/>
                        </Array>
                    </mxGeometry>
                </mxCell>
                <mxCell id="19" value="&lt;div style=&quot;color: rgb(255, 255, 255); background-color: rgb(13, 13, 29); font-family: &amp;quot;Droid Sans Mono&amp;quot;, &amp;quot;monospace&amp;quot;, monospace; font-size: 14px; line-height: 19px;&quot;&gt;&lt;span style=&quot;color: #89ddff;&quot;&gt;if(&lt;/span&gt;&lt;span style=&quot;color: #f78c6c;&quot;&gt;agua&amp;gt;=&lt;/span&gt;&lt;span style=&quot;color: #fc626a;&quot;&gt;200&lt;/span&gt;&lt;span style=&quot;color: #89ddff;&quot;&gt;)&lt;/span&gt;&lt;/div&gt;" style="rhombus;whiteSpace=wrap;html=1;" vertex="1" parent="1">
                    <mxGeometry x="-60" y="470" width="130" height="100" as="geometry"/>
                </mxCell>
                <mxCell id="30" style="edgeStyle=none;html=1;entryX=0.5;entryY=0;entryDx=0;entryDy=0;" edge="1" parent="1" source="21" target="28">
                    <mxGeometry relative="1" as="geometry">
                        <Array as="points">
                            <mxPoint x="170" y="690"/>
                            <mxPoint x="220" y="690"/>
                        </Array>
                    </mxGeometry>
                </mxCell>
                <mxCell id="21" value="&lt;div style=&quot;color: rgb(255, 255, 255); background-color: rgb(13, 13, 29); font-family: &amp;quot;Droid Sans Mono&amp;quot;, &amp;quot;monospace&amp;quot;, monospace; font-weight: normal; font-size: 14px; line-height: 19px;&quot;&gt;&lt;div&gt;&lt;span style=&quot;color: #f78c6c;&quot;&gt;costot = &lt;/span&gt;&lt;span style=&quot;color: #89ddff;&quot;&gt;(&lt;/span&gt;&lt;span style=&quot;color: #f78c6c;&quot;&gt;agua-&lt;/span&gt;&lt;span style=&quot;color: #fc626a;&quot;&gt;50&lt;/span&gt;&lt;span style=&quot;color: #89ddff;&quot;&gt;)&lt;/span&gt;&lt;span style=&quot;color: #f78c6c;&quot;&gt;*&lt;/span&gt;&lt;span style=&quot;color: #fc626a;&quot;&gt;3000&lt;/span&gt;&lt;span style=&quot;color: #f78c6c;&quot;&gt;+&lt;/span&gt;&lt;span style=&quot;color: #fc626a;&quot;&gt;1000&lt;/span&gt;&lt;/div&gt;&lt;/div&gt;" style="whiteSpace=wrap;html=1;" vertex="1" parent="1">
                    <mxGeometry x="90" y="560" width="160" height="90" as="geometry"/>
                </mxCell>
                <mxCell id="29" style="edgeStyle=none;html=1;entryX=0.5;entryY=0;entryDx=0;entryDy=0;" edge="1" parent="1" source="23" target="28">
                    <mxGeometry relative="1" as="geometry">
                        <Array as="points">
                            <mxPoint x="-130" y="690"/>
                            <mxPoint x="220" y="690"/>
                        </Array>
                    </mxGeometry>
                </mxCell>
                <mxCell id="23" value="codigo mal" style="whiteSpace=wrap;html=1;" vertex="1" parent="1">
                    <mxGeometry x="-190" y="560" width="120" height="60" as="geometry"/>
                </mxCell>
                <mxCell id="28" value="costot" style="shape=document;whiteSpace=wrap;html=1;boundedLbl=1;" vertex="1" parent="1">
                    <mxGeometry x="160" y="760" width="120" height="80" as="geometry"/>
                </mxCell>
            </root>
        </mxGraphModel>
    </diagram>
</mxfile>